{
	"asset":{
		"generator":"Khronos glTF Blender I/O v4.2.57",
		"version":"2.0"
	},
	"extensionsUsed":[
		"EXT_texture_webp",
		"KHR_materials_specular"
	],
	"extensionsRequired":[
		"EXT_texture_webp"
	],
	"scene":0,
	"scenes":[
		{
			"name":"Scene",
			"nodes":[
				4,
				5,
				6
			]
		}
	],
	"nodes":[
		{
			"mesh":0,
			"name":"cube1"
		},
		{
			"children":[
				0
			],
			"name":"polySurface2"
		},
		{
			"mesh":1,
			"name":"cube2"
		},
		{
			"children":[
				2
			],
			"name":"polySurface325"
		},
		{
			"children":[
				1,
				3
			],
			"name":"Cube"
		},
		{
			"mesh":2,
			"name":"\u7403\u4f53"
		},
		{
			"mesh":3,
			"name":"bluewhale"
		}
	],
	"materials":[
		{
			"alphaMode":"BLEND",
			"doubleSided":true,
			"emissiveFactor":[
				0.10000000149011612,
				0.10000000149011612,
				0.10000000149011612
			],
			"emissiveTexture":{
				"index":0
			},
			"name":"cube_mat",
			"normalTexture":{
				"index":1
			},
			"occlusionTexture":{
				"index":2
			},
			"pbrMetallicRoughness":{
				"baseColorFactor":[
					1,
					1,
					1,
					0.4099999964237213
				],
				"baseColorTexture":{
					"index":3
				},
				"metallicFactor":0,
				"metallicRoughnessTexture":{
					"index":2
				}
			}
		},
		{
			"doubleSided":true,
			"extensions":{
				"KHR_materials_specular":{
					"specularTexture":{
						"index":4
					}
				}
			},
			"name":"bluewhale.002",
			"normalTexture":{
				"index":5,
				"scale":0.30000001192092896
			},
			"pbrMetallicRoughness":{
				"baseColorTexture":{
					"index":6
				},
				"roughnessFactor":0.858578622341156
			}
		},
		{
			"doubleSided":true,
			"extensions":{
				"KHR_materials_specular":{
					"specularFactor":0
				}
			},
			"name":"03 - Default.001",
			"normalTexture":{
				"index":7,
				"scale":0.30000001192092896
			},
			"pbrMetallicRoughness":{
				"baseColorTexture":{
					"index":8
				},
				"roughnessFactor":0.858578622341156
			}
		},
		{
			"doubleSided":true,
			"extensions":{
				"KHR_materials_specular":{
					"specularFactor":0
				}
			},
			"name":"02 - Default.001",
			"normalTexture":{
				"index":9,
				"scale":0.30000001192092896
			},
			"pbrMetallicRoughness":{
				"baseColorTexture":{
					"index":10
				},
				"roughnessFactor":0.858578622341156
			}
		}
	],
	"meshes":[
		{
			"name":"cube1",
			"primitives":[
				{
					"attributes":{
						"POSITION":0,
						"NORMAL":1,
						"TEXCOORD_0":2
					},
					"indices":3,
					"material":0
				}
			]
		},
		{
			"name":"cube2",
			"primitives":[
				{
					"attributes":{
						"POSITION":4,
						"NORMAL":5,
						"TEXCOORD_0":6
					},
					"indices":7,
					"material":0
				}
			]
		},
		{
			"name":"ball",
			"primitives":[
				{
					"attributes":{
						"POSITION":8,
						"NORMAL":9,
						"TEXCOORD_0":10
					},
					"indices":11,
					"material":0
				}
			]
		},
		{
			"name":"bluewhale.002",
			"primitives":[
				{
					"attributes":{
						"POSITION":12,
						"NORMAL":13,
						"TEXCOORD_0":14
					},
					"indices":15,
					"material":1
				},
				{
					"attributes":{
						"POSITION":16,
						"NORMAL":17,
						"TEXCOORD_0":18
					},
					"indices":19,
					"material":2
				},
				{
					"attributes":{
						"POSITION":20,
						"NORMAL":21,
						"TEXCOORD_0":22
					},
					"indices":23,
					"material":3
				}
			]
		}
	],
	"textures":[
		{
			"extensions":{
				"EXT_texture_webp":{
					"source":0
				}
			},
			"sampler":0
		},
		{
			"extensions":{
				"EXT_texture_webp":{
					"source":1
				}
			},
			"sampler":0
		},
		{
			"extensions":{
				"EXT_texture_webp":{
					"source":2
				}
			},
			"sampler":0
		},
		{
			"extensions":{
				"EXT_texture_webp":{
					"source":0
				}
			},
			"sampler":0
		},
		{
			"sampler":0,
			"source":3
		},
		{
			"sampler":0,
			"source":4
		},
		{
			"sampler":0,
			"source":5
		},
		{
			"sampler":0,
			"source":4
		},
		{
			"sampler":0,
			"source":5
		},
		{
			"sampler":0,
			"source":4
		},
		{
			"sampler":0,
			"source":5
		}
	],
	"images":[
		{
			"mimeType":"image/webp",
			"name":"Image_0",
			"uri":"Image_0.webp"
		},
		{
			"mimeType":"image/webp",
			"name":"Image_1",
			"uri":"Image_1.webp"
		},
		{
			"mimeType":"image/webp",
			"name":"Image_2",
			"uri":"Image_2.webp"
		},
		{
			"mimeType":"image/jpeg",
			"name":"WhaleLow_SPEC",
			"uri":"WhaleLow_SPEC.jpg"
		},
		{
			"mimeType":"image/jpeg",
			"name":"WhaleLow_Normal",
			"uri":"WhaleLow_Normal.jpg"
		},
		{
			"mimeType":"image/jpeg",
			"name":"WhaleLow_BaseColor",
			"uri":"WhaleLow_BaseColor.jpg"
		}
	],
	"accessors":[
		{
			"bufferView":0,
			"componentType":5126,
			"count":1180,
			"max":[
				3.0191333293914795,
				14.947662353515625,
				2.469400644302368
			],
			"min":[
				-2.1470539569854736,
				9.866931915283203,
				-2.6324570178985596
			],
			"type":"VEC3"
		},
		{
			"bufferView":1,
			"componentType":5126,
			"count":1180,
			"type":"VEC3"
		},
		{
			"bufferView":2,
			"componentType":5126,
			"count":1180,
			"type":"VEC2"
		},
		{
			"bufferView":3,
			"componentType":5123,
			"count":6366,
			"type":"SCALAR"
		},
		{
			"bufferView":4,
			"componentType":5126,
			"count":1166,
			"max":[
				2.9707281589508057,
				14.894791603088379,
				2.423140287399292
			],
			"min":[
				-2.1058452129364014,
				9.919546127319336,
				-2.584641695022583
			],
			"type":"VEC3"
		},
		{
			"bufferView":5,
			"componentType":5126,
			"count":1166,
			"type":"VEC3"
		},
		{
			"bufferView":6,
			"componentType":5126,
			"count":1166,
			"type":"VEC2"
		},
		{
			"bufferView":7,
			"componentType":5123,
			"count":6294,
			"type":"SCALAR"
		},
		{
			"bufferView":8,
			"componentType":5126,
			"count":2072,
			"max":[
				13.471415519714355,
				8.948265075683594,
				2.5999982357025146
			],
			"min":[
				8.271418571472168,
				3.7482657432556152,
				-2.5999999046325684
			],
			"type":"VEC3"
		},
		{
			"bufferView":9,
			"componentType":5126,
			"count":2072,
			"type":"VEC3"
		},
		{
			"bufferView":10,
			"componentType":5126,
			"count":2072,
			"type":"VEC2"
		},
		{
			"bufferView":11,
			"componentType":5123,
			"count":2880,
			"type":"SCALAR"
		},
		{
			"bufferView":12,
			"componentType":5126,
			"count":1424,
			"max":[
				1.8411179780960083,
				15.641712188720703,
				2.154655933380127
			],
			"min":[
				-0.2804047763347626,
				13.164496421813965,
				-1.8140875101089478
			],
			"type":"VEC3"
		},
		{
			"bufferView":13,
			"componentType":5126,
			"count":1424,
			"type":"VEC3"
		},
		{
			"bufferView":14,
			"componentType":5126,
			"count":1424,
			"type":"VEC2"
		},
		{
			"bufferView":15,
			"componentType":5123,
			"count":6810,
			"type":"SCALAR"
		},
		{
			"bufferView":16,
			"componentType":5126,
			"count":60,
			"max":[
				0.9834589958190918,
				14.762785911560059,
				1.8543064594268799
			],
			"min":[
				0.9152165055274963,
				14.683537483215332,
				1.7820780277252197
			],
			"type":"VEC3"
		},
		{
			"bufferView":17,
			"componentType":5126,
			"count":60,
			"type":"VEC3"
		},
		{
			"bufferView":18,
			"componentType":5126,
			"count":60,
			"type":"VEC2"
		},
		{
			"bufferView":19,
			"componentType":5123,
			"count":231,
			"type":"SCALAR"
		},
		{
			"bufferView":20,
			"componentType":5126,
			"count":60,
			"max":[
				0.198585644364357,
				14.668500900268555,
				1.3681838512420654
			],
			"min":[
				0.14014890789985657,
				14.587047576904297,
				1.2910943031311035
			],
			"type":"VEC3"
		},
		{
			"bufferView":21,
			"componentType":5126,
			"count":60,
			"type":"VEC3"
		},
		{
			"bufferView":22,
			"componentType":5126,
			"count":60,
			"type":"VEC2"
		},
		{
			"bufferView":23,
			"componentType":5123,
			"count":231,
			"type":"SCALAR"
		}
	],
	"bufferViews":[
		{
			"buffer":0,
			"byteLength":14160,
			"byteOffset":0,
			"target":34962
		},
		{
			"buffer":0,
			"byteLength":14160,
			"byteOffset":14160,
			"target":34962
		},
		{
			"buffer":0,
			"byteLength":9440,
			"byteOffset":28320,
			"target":34962
		},
		{
			"buffer":0,
			"byteLength":12732,
			"byteOffset":37760,
			"target":34963
		},
		{
			"buffer":0,
			"byteLength":13992,
			"byteOffset":50492,
			"target":34962
		},
		{
			"buffer":0,
			"byteLength":13992,
			"byteOffset":64484,
			"target":34962
		},
		{
			"buffer":0,
			"byteLength":9328,
			"byteOffset":78476,
			"target":34962
		},
		{
			"buffer":0,
			"byteLength":12588,
			"byteOffset":87804,
			"target":34963
		},
		{
			"buffer":0,
			"byteLength":24864,
			"byteOffset":100392,
			"target":34962
		},
		{
			"buffer":0,
			"byteLength":24864,
			"byteOffset":125256,
			"target":34962
		},
		{
			"buffer":0,
			"byteLength":16576,
			"byteOffset":150120,
			"target":34962
		},
		{
			"buffer":0,
			"byteLength":5760,
			"byteOffset":166696,
			"target":34963
		},
		{
			"buffer":0,
			"byteLength":17088,
			"byteOffset":172456,
			"target":34962
		},
		{
			"buffer":0,
			"byteLength":17088,
			"byteOffset":189544,
			"target":34962
		},
		{
			"buffer":0,
			"byteLength":11392,
			"byteOffset":206632,
			"target":34962
		},
		{
			"buffer":0,
			"byteLength":13620,
			"byteOffset":218024,
			"target":34963
		},
		{
			"buffer":0,
			"byteLength":720,
			"byteOffset":231644,
			"target":34962
		},
		{
			"buffer":0,
			"byteLength":720,
			"byteOffset":232364,
			"target":34962
		},
		{
			"buffer":0,
			"byteLength":480,
			"byteOffset":233084,
			"target":34962
		},
		{
			"buffer":0,
			"byteLength":462,
			"byteOffset":233564,
			"target":34963
		},
		{
			"buffer":0,
			"byteLength":720,
			"byteOffset":234028,
			"target":34962
		},
		{
			"buffer":0,
			"byteLength":720,
			"byteOffset":234748,
			"target":34962
		},
		{
			"buffer":0,
			"byteLength":480,
			"byteOffset":235468,
			"target":34962
		},
		{
			"buffer":0,
			"byteLength":462,
			"byteOffset":235948,
			"target":34963
		}
	],
	"samplers":[
		{
			"magFilter":9729,
			"minFilter":9987
		}
	],
	"buffers":[
		{
			"byteLength":236412,
			"uri":"newfronzen.bin"
		}
	]
}
