{
	"asset":{
		"generator":"Khronos glTF Blender I/O v4.2.57",
		"version":"2.0"
	},
	"extensionsUsed":[
		"EXT_texture_webp",
		"KHR_materials_specular",
		"KHR_materials_ior"
	],
	"extensionsRequired":[
		"EXT_texture_webp"
	],
	"scene":0,
	"scenes":[
		{
			"name":"Scene",
			"nodes":[
				0,
				1,
				2,
				3,
				4,
				5,
				6,
				7,
				8
			]
		}
	],
	"nodes":[
		{
			"mesh":0,
			"name":"cube1"
		},
		{
			"mesh":1,
			"name":"cube2"
		},
		{
			"mesh":2,
			"name":"\u7403\u4f53"
		},
		{
			"mesh":3,
			"name":"bluewhale",
			"translation":[
				0.6165000796318054,
				14.115243911743164,
				0.17429021000862122
			]
		},
		{
			"mesh":4,
			"name":"bubbles"
		},
		{
			"mesh":5,
			"name":"arrows"
		},
		{
			"mesh":6,
			"name":"shark",
			"rotation":[
				0.0021992360707372427,
				-0.3556857407093048,
				0.008275053463876247,
				0.9345663785934448
			],
			"scale":[
				0.30000001192092896,
				0.30000001192092896,
				0.30000001192092896
			],
			"translation":[
				5.095259666442871,
				1.625126838684082,
				1.6802008152008057
			]
		},
		{
			"mesh":7,
			"name":"efish"
		},
		{
			"mesh":8,
			"name":"turtle"
		}
	],
	"materials":[
		{
			"alphaMode":"BLEND",
			"doubleSided":true,
			"emissiveFactor":[
				0.10000000149011612,
				0.10000000149011612,
				0.10000000149011612
			],
			"emissiveTexture":{
				"index":0
			},
			"name":"cube_mat",
			"normalTexture":{
				"index":1
			},
			"occlusionTexture":{
				"index":2
			},
			"pbrMetallicRoughness":{
				"baseColorFactor":[
					1,
					1,
					1,
					0.4099999964237213
				],
				"baseColorTexture":{
					"index":3
				},
				"metallicFactor":0,
				"metallicRoughnessTexture":{
					"index":2
				}
			}
		},
		{
			"doubleSided":true,
			"extensions":{
				"KHR_materials_specular":{
					"specularTexture":{
						"index":4
					}
				}
			},
			"name":"bluewhale02",
			"normalTexture":{
				"index":5,
				"scale":0.30000001192092896
			},
			"pbrMetallicRoughness":{
				"baseColorTexture":{
					"index":6
				},
				"roughnessFactor":0.858578622341156
			}
		},
		{
			"doubleSided":true,
			"extensions":{
				"KHR_materials_specular":{
					"specularFactor":0
				}
			},
			"name":"03 - Default.001",
			"normalTexture":{
				"index":7,
				"scale":0.30000001192092896
			},
			"pbrMetallicRoughness":{
				"baseColorTexture":{
					"index":8
				},
				"roughnessFactor":0.858578622341156
			}
		},
		{
			"doubleSided":true,
			"extensions":{
				"KHR_materials_specular":{
					"specularFactor":0
				}
			},
			"name":"02 - Default.001",
			"normalTexture":{
				"index":9,
				"scale":0.30000001192092896
			},
			"pbrMetallicRoughness":{
				"baseColorTexture":{
					"index":10
				},
				"roughnessFactor":0.858578622341156
			}
		},
		{
			"alphaMode":"BLEND",
			"doubleSided":true,
			"emissiveFactor":[
				0.7467212677001953,
				0.7467212677001953,
				0.7467212677001953
			],
			"emissiveTexture":{
				"index":11
			},
			"name":"cube_bubbles_mat",
			"occlusionTexture":{
				"index":12
			},
			"pbrMetallicRoughness":{
				"baseColorFactor":[
					1,
					1,
					1,
					0.1050729900598526
				],
				"baseColorTexture":{
					"index":13
				},
				"metallicFactor":0,
				"metallicRoughnessTexture":{
					"index":12
				}
			}
		},
		{
			"doubleSided":true,
			"name":"weapons_mat",
			"normalTexture":{
				"index":14
			},
			"occlusionTexture":{
				"index":15
			},
			"pbrMetallicRoughness":{
				"baseColorTexture":{
					"index":16
				},
				"metallicRoughnessTexture":{
					"index":15
				}
			}
		},
		{
			"doubleSided":true,
			"extensions":{
				"KHR_materials_specular":{
					"specularColorTexture":{
						"index":17
					}
				},
				"KHR_materials_ior":{
					"ior":1000
				}
			},
			"name":"shark",
			"normalTexture":{
				"index":18
			},
			"occlusionTexture":{
				"index":19
			},
			"pbrMetallicRoughness":{
				"baseColorTexture":{
					"index":20
				},
				"metallicFactor":0,
				"metallicRoughnessTexture":{
					"index":21
				}
			}
		},
		{
			"doubleSided":true,
			"extensions":{
				"KHR_materials_specular":{
					"specularFactor":0
				}
			},
			"name":"efish",
			"normalTexture":{
				"index":22,
				"scale":0.30000001192092896
			},
			"pbrMetallicRoughness":{
				"baseColorTexture":{
					"index":23
				},
				"roughnessFactor":0
			}
		},
		{
			"name":"turtle",
			"normalTexture":{
				"index":24
			},
			"occlusionTexture":{
				"index":25
			},
			"pbrMetallicRoughness":{
				"baseColorTexture":{
					"index":26
				},
				"metallicRoughnessTexture":{
					"index":25
				}
			}
		}
	],
	"meshes":[
		{
			"name":"cube1",
			"primitives":[
				{
					"attributes":{
						"POSITION":0,
						"NORMAL":1,
						"TEXCOORD_0":2
					},
					"indices":3,
					"material":0
				}
			]
		},
		{
			"name":"cube2",
			"primitives":[
				{
					"attributes":{
						"POSITION":4,
						"NORMAL":5,
						"TEXCOORD_0":6
					},
					"indices":7,
					"material":0
				}
			]
		},
		{
			"name":"ball",
			"primitives":[
				{
					"attributes":{
						"POSITION":8,
						"NORMAL":9,
						"TEXCOORD_0":10
					},
					"indices":11,
					"material":0
				}
			]
		},
		{
			"name":"bluewhale.002",
			"primitives":[
				{
					"attributes":{
						"POSITION":12,
						"NORMAL":13,
						"TEXCOORD_0":14
					},
					"indices":15,
					"material":1
				},
				{
					"attributes":{
						"POSITION":16,
						"NORMAL":17,
						"TEXCOORD_0":18
					},
					"indices":19,
					"material":2
				},
				{
					"attributes":{
						"POSITION":20,
						"NORMAL":21,
						"TEXCOORD_0":22
					},
					"indices":23,
					"material":3
				}
			]
		},
		{
			"name":"bubbles",
			"primitives":[
				{
					"attributes":{
						"POSITION":24,
						"NORMAL":25,
						"TEXCOORD_0":26
					},
					"indices":27,
					"material":4
				}
			]
		},
		{
			"name":"arrows",
			"primitives":[
				{
					"attributes":{
						"POSITION":28,
						"NORMAL":29,
						"TEXCOORD_0":30
					},
					"indices":31,
					"material":5
				}
			]
		},
		{
			"name":"shark",
			"primitives":[
				{
					"attributes":{
						"POSITION":32,
						"NORMAL":33,
						"TEXCOORD_0":34
					},
					"indices":35,
					"material":6
				}
			]
		},
		{
			"name":"efish",
			"primitives":[
				{
					"attributes":{
						"POSITION":36,
						"NORMAL":37,
						"TEXCOORD_0":38
					},
					"indices":39,
					"material":7
				}
			]
		},
		{
			"name":"turtle",
			"primitives":[
				{
					"attributes":{
						"POSITION":40,
						"NORMAL":41,
						"TEXCOORD_0":42
					},
					"indices":43,
					"material":8
				}
			]
		}
	],
	"textures":[
		{
			"extensions":{
				"EXT_texture_webp":{
					"source":0
				}
			},
			"sampler":0
		},
		{
			"extensions":{
				"EXT_texture_webp":{
					"source":1
				}
			},
			"sampler":0
		},
		{
			"extensions":{
				"EXT_texture_webp":{
					"source":2
				}
			},
			"sampler":0
		},
		{
			"extensions":{
				"EXT_texture_webp":{
					"source":0
				}
			},
			"sampler":0
		},
		{
			"sampler":0,
			"source":3
		},
		{
			"sampler":0,
			"source":4
		},
		{
			"sampler":0,
			"source":5
		},
		{
			"sampler":0,
			"source":4
		},
		{
			"sampler":0,
			"source":5
		},
		{
			"sampler":0,
			"source":4
		},
		{
			"sampler":0,
			"source":5
		},
		{
			"extensions":{
				"EXT_texture_webp":{
					"source":0
				}
			},
			"sampler":0
		},
		{
			"extensions":{
				"EXT_texture_webp":{
					"source":2
				}
			},
			"sampler":0
		},
		{
			"extensions":{
				"EXT_texture_webp":{
					"source":0
				}
			},
			"sampler":0
		},
		{
			"extensions":{
				"EXT_texture_webp":{
					"source":6
				}
			},
			"sampler":0
		},
		{
			"extensions":{
				"EXT_texture_webp":{
					"source":7
				}
			},
			"sampler":0
		},
		{
			"extensions":{
				"EXT_texture_webp":{
					"source":8
				}
			},
			"sampler":0
		},
		{
			"sampler":0,
			"source":9
		},
		{
			"sampler":0,
			"source":10
		},
		{
			"sampler":0,
			"source":11
		},
		{
			"sampler":0,
			"source":12
		},
		{
			"sampler":0,
			"source":13
		},
		{
			"sampler":0,
			"source":14
		},
		{
			"sampler":0,
			"source":15
		},
		{
			"sampler":0,
			"source":16
		},
		{
			"sampler":0,
			"source":17
		},
		{
			"sampler":0,
			"source":18
		}
	],
	"images":[
		{
			"mimeType":"image/webp",
			"name":"Image_0",
			"uri":"Image_0.webp"
		},
		{
			"mimeType":"image/webp",
			"name":"Image_1",
			"uri":"Image_1.webp"
		},
		{
			"mimeType":"image/webp",
			"name":"Image_2",
			"uri":"Image_2.webp"
		},
		{
			"mimeType":"image/jpeg",
			"name":"WhaleLow_SPEC",
			"uri":"WhaleLow_SPEC.jpg"
		},
		{
			"mimeType":"image/jpeg",
			"name":"WhaleLow_Normal",
			"uri":"WhaleLow_Normal.jpg"
		},
		{
			"mimeType":"image/jpeg",
			"name":"WhaleLow_BaseColor",
			"uri":"WhaleLow_BaseColor.jpg"
		},
		{
			"mimeType":"image/webp",
			"name":"Image_6",
			"uri":"Image_6.webp"
		},
		{
			"mimeType":"image/webp",
			"name":"Image_7",
			"uri":"Image_7.webp"
		},
		{
			"mimeType":"image/webp",
			"name":"Image_8",
			"uri":"Image_8.webp"
		},
		{
			"mimeType":"image/png",
			"name":"Image_1",
			"uri":"Image_1.png"
		},
		{
			"mimeType":"image/jpeg",
			"name":"Image_2",
			"uri":"Image_2.jpg"
		},
		{
			"mimeType":"image/jpeg",
			"name":"Image_3",
			"uri":"Image_3.jpg"
		},
		{
			"mimeType":"image/jpeg",
			"name":"Image_0",
			"uri":"Image_0.jpg"
		},
		{
			"mimeType":"image/png",
			"name":"Image_1-1",
			"uri":"Image_1-1.png"
		},
		{
			"mimeType":"image/jpeg",
			"name":"tylosarus_nrml",
			"uri":"tylosarus_nrml.jpg"
		},
		{
			"mimeType":"image/jpeg",
			"name":"tylosarus_col",
			"uri":"tylosarus_col.jpg"
		},
		{
			"mimeType":"image/jpeg",
			"name":"Image_2",
			"uri":"Image_2-1.jpg"
		},
		{
			"mimeType":"image/jpeg",
			"name":"Image_1",
			"uri":"Image_1.jpg"
		},
		{
			"mimeType":"image/jpeg",
			"name":"Image_0",
			"uri":"Image_0-1.jpg"
		}
	],
	"accessors":[
		{
			"bufferView":0,
			"componentType":5126,
			"count":1180,
			"max":[
				3.0191333293914795,
				14.947662353515625,
				2.469400644302368
			],
			"min":[
				-2.1470539569854736,
				9.866931915283203,
				-2.6324570178985596
			],
			"type":"VEC3"
		},
		{
			"bufferView":1,
			"componentType":5126,
			"count":1180,
			"type":"VEC3"
		},
		{
			"bufferView":2,
			"componentType":5126,
			"count":1180,
			"type":"VEC2"
		},
		{
			"bufferView":3,
			"componentType":5123,
			"count":6366,
			"type":"SCALAR"
		},
		{
			"bufferView":4,
			"componentType":5126,
			"count":1166,
			"max":[
				2.9707281589508057,
				14.894791603088379,
				2.423140287399292
			],
			"min":[
				-2.1058452129364014,
				9.919546127319336,
				-2.584641695022583
			],
			"type":"VEC3"
		},
		{
			"bufferView":5,
			"componentType":5126,
			"count":1166,
			"type":"VEC3"
		},
		{
			"bufferView":6,
			"componentType":5126,
			"count":1166,
			"type":"VEC2"
		},
		{
			"bufferView":7,
			"componentType":5123,
			"count":6294,
			"type":"SCALAR"
		},
		{
			"bufferView":8,
			"componentType":5126,
			"count":2072,
			"max":[
				13.471415519714355,
				8.948265075683594,
				2.5999982357025146
			],
			"min":[
				8.271418571472168,
				3.7482657432556152,
				-2.5999999046325684
			],
			"type":"VEC3"
		},
		{
			"bufferView":9,
			"componentType":5126,
			"count":2072,
			"type":"VEC3"
		},
		{
			"bufferView":10,
			"componentType":5126,
			"count":2072,
			"type":"VEC2"
		},
		{
			"bufferView":11,
			"componentType":5123,
			"count":2880,
			"type":"SCALAR"
		},
		{
			"bufferView":12,
			"componentType":5126,
			"count":1424,
			"max":[
				1.403451681137085,
				1.548421859741211,
				1.441953182220459
			],
			"min":[
				-1.8778002262115479,
				-0.9413766860961914,
				-2.595947742462158
			],
			"type":"VEC3"
		},
		{
			"bufferView":13,
			"componentType":5126,
			"count":1424,
			"type":"VEC3"
		},
		{
			"bufferView":14,
			"componentType":5126,
			"count":1424,
			"type":"VEC2"
		},
		{
			"bufferView":15,
			"componentType":5123,
			"count":6810,
			"type":"SCALAR"
		},
		{
			"bufferView":16,
			"componentType":5126,
			"count":60,
			"max":[
				0.8384379744529724,
				0.6124563217163086,
				0.6483504772186279
			],
			"min":[
				0.7900633215904236,
				0.5329494476318359,
				0.5678074359893799
			],
			"type":"VEC3"
		},
		{
			"bufferView":17,
			"componentType":5126,
			"count":60,
			"type":"VEC3"
		},
		{
			"bufferView":18,
			"componentType":5126,
			"count":60,
			"type":"VEC2"
		},
		{
			"bufferView":19,
			"componentType":5123,
			"count":231,
			"type":"SCALAR"
		},
		{
			"bufferView":20,
			"componentType":5126,
			"count":60,
			"max":[
				-0.07532769441604614,
				0.5881280899047852,
				0.833920955657959
			],
			"min":[
				-0.13048797845840454,
				0.507288932800293,
				0.7547520399093628
			],
			"type":"VEC3"
		},
		{
			"bufferView":21,
			"componentType":5126,
			"count":60,
			"type":"VEC3"
		},
		{
			"bufferView":22,
			"componentType":5126,
			"count":60,
			"type":"VEC2"
		},
		{
			"bufferView":23,
			"componentType":5123,
			"count":231,
			"type":"SCALAR"
		},
		{
			"bufferView":24,
			"componentType":5126,
			"count":741,
			"max":[
				1.7253164052963257,
				13.760156631469727,
				1.4216735363006592
			],
			"min":[
				-0.7625774145126343,
				11.659805297851562,
				-0.4357045888900757
			],
			"type":"VEC3"
		},
		{
			"bufferView":25,
			"componentType":5126,
			"count":741,
			"type":"VEC3"
		},
		{
			"bufferView":26,
			"componentType":5126,
			"count":741,
			"type":"VEC2"
		},
		{
			"bufferView":27,
			"componentType":5123,
			"count":4206,
			"type":"SCALAR"
		},
		{
			"bufferView":28,
			"componentType":5126,
			"count":668,
			"max":[
				4.253091335296631,
				15.363812446594238,
				2.008638381958008
			],
			"min":[
				-2.8563456535339355,
				12.22807502746582,
				-0.13465070724487305
			],
			"type":"VEC3"
		},
		{
			"bufferView":29,
			"componentType":5126,
			"count":668,
			"type":"VEC3"
		},
		{
			"bufferView":30,
			"componentType":5126,
			"count":668,
			"type":"VEC2"
		},
		{
			"bufferView":31,
			"componentType":5123,
			"count":2295,
			"type":"SCALAR"
		},
		{
			"bufferView":32,
			"componentType":5126,
			"count":45503,
			"max":[
				3.4160702228546143,
				5.376560688018799,
				7.805001258850098
			],
			"min":[
				-3.4160706996917725,
				-0.6378432512283325,
				-9.112363815307617
			],
			"type":"VEC3"
		},
		{
			"bufferView":33,
			"componentType":5126,
			"count":45503,
			"type":"VEC3"
		},
		{
			"bufferView":34,
			"componentType":5126,
			"count":45503,
			"type":"VEC2"
		},
		{
			"bufferView":35,
			"componentType":5123,
			"count":153624,
			"type":"SCALAR"
		},
		{
			"bufferView":36,
			"componentType":5126,
			"count":2724,
			"max":[
				1.2442249059677124,
				3.648770332336426,
				1.6211941242218018
			],
			"min":[
				-0.7748144268989563,
				0.621185302734375,
				-1.8857042789459229
			],
			"type":"VEC3"
		},
		{
			"bufferView":37,
			"componentType":5126,
			"count":2724,
			"type":"VEC3"
		},
		{
			"bufferView":38,
			"componentType":5126,
			"count":2724,
			"type":"VEC2"
		},
		{
			"bufferView":39,
			"componentType":5123,
			"count":12600,
			"type":"SCALAR"
		},
		{
			"bufferView":40,
			"componentType":5126,
			"count":5466,
			"max":[
				1.5591087341308594,
				6.672684192657471,
				1.1099902391433716
			],
			"min":[
				-1.6336097717285156,
				5.306894779205322,
				-1.6498459577560425
			],
			"type":"VEC3"
		},
		{
			"bufferView":41,
			"componentType":5126,
			"count":5466,
			"type":"VEC3"
		},
		{
			"bufferView":42,
			"componentType":5126,
			"count":5466,
			"type":"VEC2"
		},
		{
			"bufferView":43,
			"componentType":5123,
			"count":29538,
			"type":"SCALAR"
		}
	],
	"bufferViews":[
		{
			"buffer":0,
			"byteLength":14160,
			"byteOffset":0,
			"target":34962
		},
		{
			"buffer":0,
			"byteLength":14160,
			"byteOffset":14160,
			"target":34962
		},
		{
			"buffer":0,
			"byteLength":9440,
			"byteOffset":28320,
			"target":34962
		},
		{
			"buffer":0,
			"byteLength":12732,
			"byteOffset":37760,
			"target":34963
		},
		{
			"buffer":0,
			"byteLength":13992,
			"byteOffset":50492,
			"target":34962
		},
		{
			"buffer":0,
			"byteLength":13992,
			"byteOffset":64484,
			"target":34962
		},
		{
			"buffer":0,
			"byteLength":9328,
			"byteOffset":78476,
			"target":34962
		},
		{
			"buffer":0,
			"byteLength":12588,
			"byteOffset":87804,
			"target":34963
		},
		{
			"buffer":0,
			"byteLength":24864,
			"byteOffset":100392,
			"target":34962
		},
		{
			"buffer":0,
			"byteLength":24864,
			"byteOffset":125256,
			"target":34962
		},
		{
			"buffer":0,
			"byteLength":16576,
			"byteOffset":150120,
			"target":34962
		},
		{
			"buffer":0,
			"byteLength":5760,
			"byteOffset":166696,
			"target":34963
		},
		{
			"buffer":0,
			"byteLength":17088,
			"byteOffset":172456,
			"target":34962
		},
		{
			"buffer":0,
			"byteLength":17088,
			"byteOffset":189544,
			"target":34962
		},
		{
			"buffer":0,
			"byteLength":11392,
			"byteOffset":206632,
			"target":34962
		},
		{
			"buffer":0,
			"byteLength":13620,
			"byteOffset":218024,
			"target":34963
		},
		{
			"buffer":0,
			"byteLength":720,
			"byteOffset":231644,
			"target":34962
		},
		{
			"buffer":0,
			"byteLength":720,
			"byteOffset":232364,
			"target":34962
		},
		{
			"buffer":0,
			"byteLength":480,
			"byteOffset":233084,
			"target":34962
		},
		{
			"buffer":0,
			"byteLength":462,
			"byteOffset":233564,
			"target":34963
		},
		{
			"buffer":0,
			"byteLength":720,
			"byteOffset":234028,
			"target":34962
		},
		{
			"buffer":0,
			"byteLength":720,
			"byteOffset":234748,
			"target":34962
		},
		{
			"buffer":0,
			"byteLength":480,
			"byteOffset":235468,
			"target":34962
		},
		{
			"buffer":0,
			"byteLength":462,
			"byteOffset":235948,
			"target":34963
		},
		{
			"buffer":0,
			"byteLength":8892,
			"byteOffset":236412,
			"target":34962
		},
		{
			"buffer":0,
			"byteLength":8892,
			"byteOffset":245304,
			"target":34962
		},
		{
			"buffer":0,
			"byteLength":5928,
			"byteOffset":254196,
			"target":34962
		},
		{
			"buffer":0,
			"byteLength":8412,
			"byteOffset":260124,
			"target":34963
		},
		{
			"buffer":0,
			"byteLength":8016,
			"byteOffset":268536,
			"target":34962
		},
		{
			"buffer":0,
			"byteLength":8016,
			"byteOffset":276552,
			"target":34962
		},
		{
			"buffer":0,
			"byteLength":5344,
			"byteOffset":284568,
			"target":34962
		},
		{
			"buffer":0,
			"byteLength":4590,
			"byteOffset":289912,
			"target":34963
		},
		{
			"buffer":0,
			"byteLength":546036,
			"byteOffset":294504,
			"target":34962
		},
		{
			"buffer":0,
			"byteLength":546036,
			"byteOffset":840540,
			"target":34962
		},
		{
			"buffer":0,
			"byteLength":364024,
			"byteOffset":1386576,
			"target":34962
		},
		{
			"buffer":0,
			"byteLength":307248,
			"byteOffset":1750600,
			"target":34963
		},
		{
			"buffer":0,
			"byteLength":32688,
			"byteOffset":2057848,
			"target":34962
		},
		{
			"buffer":0,
			"byteLength":32688,
			"byteOffset":2090536,
			"target":34962
		},
		{
			"buffer":0,
			"byteLength":21792,
			"byteOffset":2123224,
			"target":34962
		},
		{
			"buffer":0,
			"byteLength":25200,
			"byteOffset":2145016,
			"target":34963
		},
		{
			"buffer":0,
			"byteLength":65592,
			"byteOffset":2170216,
			"target":34962
		},
		{
			"buffer":0,
			"byteLength":65592,
			"byteOffset":2235808,
			"target":34962
		},
		{
			"buffer":0,
			"byteLength":43728,
			"byteOffset":2301400,
			"target":34962
		},
		{
			"buffer":0,
			"byteLength":59076,
			"byteOffset":2345128,
			"target":34963
		}
	],
	"samplers":[
		{
			"magFilter":9729,
			"minFilter":9987
		}
	],
	"buffers":[
		{
			"byteLength":2404204,
			"uri":"newfronzen.bin"
		}
	]
}
