{
	"asset":{
		"generator":"Khronos glTF Blender I/O v4.2.57",
		"version":"2.0"
	},
	"extensionsUsed":[
		"EXT_texture_webp",
		"KHR_materials_specular"
	],
	"extensionsRequired":[
		"EXT_texture_webp"
	],
	"scene":0,
	"scenes":[
		{
			"name":"Scene",
			"nodes":[
				0,
				1,
				2,
				3,
				4,
				5
			]
		}
	],
	"nodes":[
		{
			"mesh":0,
			"name":"cube1"
		},
		{
			"mesh":1,
			"name":"cube2"
		},
		{
			"mesh":2,
			"name":"bluewhale",
			"translation":[
				0.6165000796318054,
				14.115243911743164,
				0.17429021000862122
			]
		},
		{
			"mesh":3,
			"name":"bubbles"
		},
		{
			"mesh":4,
			"name":"arrows"
		},
		{
			"mesh":5,
			"name":"ball"
		}
	],
	"materials":[
		{
			"alphaMode":"BLEND",
			"doubleSided":true,
			"emissiveFactor":[
				0.10000000149011612,
				0.10000000149011612,
				0.10000000149011612
			],
			"emissiveTexture":{
				"index":0
			},
			"name":"cube_mat",
			"normalTexture":{
				"index":1
			},
			"occlusionTexture":{
				"index":2
			},
			"pbrMetallicRoughness":{
				"baseColorFactor":[
					1,
					1,
					1,
					0.4099999964237213
				],
				"baseColorTexture":{
					"index":3
				},
				"metallicFactor":0,
				"metallicRoughnessTexture":{
					"index":2
				}
			}
		},
		{
			"doubleSided":true,
			"extensions":{
				"KHR_materials_specular":{
					"specularTexture":{
						"index":4
					}
				}
			},
			"name":"bluewhale02",
			"normalTexture":{
				"index":5,
				"scale":0.30000001192092896
			},
			"pbrMetallicRoughness":{
				"baseColorTexture":{
					"index":6
				},
				"roughnessFactor":0.858578622341156
			}
		},
		{
			"doubleSided":true,
			"extensions":{
				"KHR_materials_specular":{
					"specularFactor":0
				}
			},
			"name":"03 - Default.001",
			"normalTexture":{
				"index":7,
				"scale":0.30000001192092896
			},
			"pbrMetallicRoughness":{
				"baseColorTexture":{
					"index":8
				},
				"roughnessFactor":0.858578622341156
			}
		},
		{
			"doubleSided":true,
			"extensions":{
				"KHR_materials_specular":{
					"specularFactor":0
				}
			},
			"name":"02 - Default.001",
			"normalTexture":{
				"index":9,
				"scale":0.30000001192092896
			},
			"pbrMetallicRoughness":{
				"baseColorTexture":{
					"index":10
				},
				"roughnessFactor":0.858578622341156
			}
		},
		{
			"alphaMode":"BLEND",
			"doubleSided":true,
			"emissiveFactor":[
				0.7467212677001953,
				0.7467212677001953,
				0.7467212677001953
			],
			"emissiveTexture":{
				"index":11
			},
			"name":"cube_bubbles_mat",
			"occlusionTexture":{
				"index":12
			},
			"pbrMetallicRoughness":{
				"baseColorFactor":[
					1,
					1,
					1,
					0.1050729900598526
				],
				"baseColorTexture":{
					"index":13
				},
				"metallicFactor":0,
				"metallicRoughnessTexture":{
					"index":12
				}
			}
		},
		{
			"doubleSided":true,
			"name":"weapons_mat",
			"normalTexture":{
				"index":14
			},
			"occlusionTexture":{
				"index":15
			},
			"pbrMetallicRoughness":{
				"baseColorTexture":{
					"index":16
				},
				"metallicRoughnessTexture":{
					"index":15
				}
			}
		},
		{
			"doubleSided":true,
			"name":"L",
			"pbrMetallicRoughness":{
				"baseColorFactor":[
					0.7189925909042358,
					0.7238847613334656,
					0.8006302714347839,
					1
				],
				"roughnessFactor":0.20000000298023224
			}
		}
	],
	"meshes":[
		{
			"name":"cube1",
			"primitives":[
				{
					"attributes":{
						"POSITION":0,
						"NORMAL":1,
						"TEXCOORD_0":2
					},
					"indices":3,
					"material":0
				}
			]
		},
		{
			"name":"cube2",
			"primitives":[
				{
					"attributes":{
						"POSITION":4,
						"NORMAL":5,
						"TEXCOORD_0":6
					},
					"indices":7,
					"material":0
				}
			]
		},
		{
			"name":"bluewhale.002",
			"primitives":[
				{
					"attributes":{
						"POSITION":8,
						"NORMAL":9,
						"TEXCOORD_0":10
					},
					"indices":11,
					"material":1
				},
				{
					"attributes":{
						"POSITION":12,
						"NORMAL":13,
						"TEXCOORD_0":14
					},
					"indices":15,
					"material":2
				},
				{
					"attributes":{
						"POSITION":16,
						"NORMAL":17,
						"TEXCOORD_0":18
					},
					"indices":19,
					"material":3
				}
			]
		},
		{
			"name":"bubbles",
			"primitives":[
				{
					"attributes":{
						"POSITION":20,
						"NORMAL":21,
						"TEXCOORD_0":22
					},
					"indices":23,
					"material":4
				}
			]
		},
		{
			"name":"arrows",
			"primitives":[
				{
					"attributes":{
						"POSITION":24,
						"NORMAL":25,
						"TEXCOORD_0":26
					},
					"indices":27,
					"material":5
				}
			]
		},
		{
			"name":"ball",
			"primitives":[
				{
					"attributes":{
						"POSITION":28,
						"NORMAL":29,
						"TEXCOORD_0":30
					},
					"indices":31,
					"material":6
				}
			]
		}
	],
	"textures":[
		{
			"extensions":{
				"EXT_texture_webp":{
					"source":0
				}
			},
			"sampler":0
		},
		{
			"extensions":{
				"EXT_texture_webp":{
					"source":1
				}
			},
			"sampler":0
		},
		{
			"extensions":{
				"EXT_texture_webp":{
					"source":2
				}
			},
			"sampler":0
		},
		{
			"extensions":{
				"EXT_texture_webp":{
					"source":0
				}
			},
			"sampler":0
		},
		{
			"sampler":0,
			"source":3
		},
		{
			"sampler":0,
			"source":4
		},
		{
			"sampler":0,
			"source":5
		},
		{
			"sampler":0,
			"source":4
		},
		{
			"sampler":0,
			"source":5
		},
		{
			"sampler":0,
			"source":4
		},
		{
			"sampler":0,
			"source":5
		},
		{
			"extensions":{
				"EXT_texture_webp":{
					"source":0
				}
			},
			"sampler":0
		},
		{
			"extensions":{
				"EXT_texture_webp":{
					"source":2
				}
			},
			"sampler":0
		},
		{
			"extensions":{
				"EXT_texture_webp":{
					"source":0
				}
			},
			"sampler":0
		},
		{
			"extensions":{
				"EXT_texture_webp":{
					"source":6
				}
			},
			"sampler":0
		},
		{
			"extensions":{
				"EXT_texture_webp":{
					"source":7
				}
			},
			"sampler":0
		},
		{
			"extensions":{
				"EXT_texture_webp":{
					"source":8
				}
			},
			"sampler":0
		}
	],
	"images":[
		{
			"mimeType":"image/webp",
			"name":"Image_0",
			"uri":"Image_0.webp"
		},
		{
			"mimeType":"image/webp",
			"name":"Image_1",
			"uri":"Image_1.webp"
		},
		{
			"mimeType":"image/webp",
			"name":"Image_2",
			"uri":"Image_2.webp"
		},
		{
			"mimeType":"image/jpeg",
			"name":"WhaleLow_SPEC",
			"uri":"WhaleLow_SPEC.jpg"
		},
		{
			"mimeType":"image/jpeg",
			"name":"WhaleLow_Normal",
			"uri":"WhaleLow_Normal.jpg"
		},
		{
			"mimeType":"image/jpeg",
			"name":"WhaleLow_BaseColor",
			"uri":"WhaleLow_BaseColor.jpg"
		},
		{
			"mimeType":"image/webp",
			"name":"Image_6",
			"uri":"Image_6.webp"
		},
		{
			"mimeType":"image/webp",
			"name":"Image_7",
			"uri":"Image_7.webp"
		},
		{
			"mimeType":"image/webp",
			"name":"Image_8",
			"uri":"Image_8.webp"
		}
	],
	"accessors":[
		{
			"bufferView":0,
			"componentType":5126,
			"count":1180,
			"max":[
				3.0191333293914795,
				14.947662353515625,
				2.469400644302368
			],
			"min":[
				-2.1470539569854736,
				9.866931915283203,
				-2.6324570178985596
			],
			"type":"VEC3"
		},
		{
			"bufferView":1,
			"componentType":5126,
			"count":1180,
			"type":"VEC3"
		},
		{
			"bufferView":2,
			"componentType":5126,
			"count":1180,
			"type":"VEC2"
		},
		{
			"bufferView":3,
			"componentType":5123,
			"count":6366,
			"type":"SCALAR"
		},
		{
			"bufferView":4,
			"componentType":5126,
			"count":1166,
			"max":[
				2.9707281589508057,
				14.894791603088379,
				2.423140287399292
			],
			"min":[
				-2.1058452129364014,
				9.919546127319336,
				-2.584641695022583
			],
			"type":"VEC3"
		},
		{
			"bufferView":5,
			"componentType":5126,
			"count":1166,
			"type":"VEC3"
		},
		{
			"bufferView":6,
			"componentType":5126,
			"count":1166,
			"type":"VEC2"
		},
		{
			"bufferView":7,
			"componentType":5123,
			"count":6294,
			"type":"SCALAR"
		},
		{
			"bufferView":8,
			"componentType":5126,
			"count":1424,
			"max":[
				1.403451681137085,
				1.548421859741211,
				1.441953182220459
			],
			"min":[
				-1.8778002262115479,
				-0.9413766860961914,
				-2.595947742462158
			],
			"type":"VEC3"
		},
		{
			"bufferView":9,
			"componentType":5126,
			"count":1424,
			"type":"VEC3"
		},
		{
			"bufferView":10,
			"componentType":5126,
			"count":1424,
			"type":"VEC2"
		},
		{
			"bufferView":11,
			"componentType":5123,
			"count":6810,
			"type":"SCALAR"
		},
		{
			"bufferView":12,
			"componentType":5126,
			"count":60,
			"max":[
				0.8384379744529724,
				0.6124563217163086,
				0.6483504772186279
			],
			"min":[
				0.7900633215904236,
				0.5329494476318359,
				0.5678074359893799
			],
			"type":"VEC3"
		},
		{
			"bufferView":13,
			"componentType":5126,
			"count":60,
			"type":"VEC3"
		},
		{
			"bufferView":14,
			"componentType":5126,
			"count":60,
			"type":"VEC2"
		},
		{
			"bufferView":15,
			"componentType":5123,
			"count":231,
			"type":"SCALAR"
		},
		{
			"bufferView":16,
			"componentType":5126,
			"count":60,
			"max":[
				-0.07532769441604614,
				0.5881280899047852,
				0.833920955657959
			],
			"min":[
				-0.13048797845840454,
				0.507288932800293,
				0.7547520399093628
			],
			"type":"VEC3"
		},
		{
			"bufferView":17,
			"componentType":5126,
			"count":60,
			"type":"VEC3"
		},
		{
			"bufferView":18,
			"componentType":5126,
			"count":60,
			"type":"VEC2"
		},
		{
			"bufferView":19,
			"componentType":5123,
			"count":231,
			"type":"SCALAR"
		},
		{
			"bufferView":20,
			"componentType":5126,
			"count":741,
			"max":[
				1.7253164052963257,
				13.760156631469727,
				1.4216735363006592
			],
			"min":[
				-0.7625774145126343,
				11.659805297851562,
				-0.4357045888900757
			],
			"type":"VEC3"
		},
		{
			"bufferView":21,
			"componentType":5126,
			"count":741,
			"type":"VEC3"
		},
		{
			"bufferView":22,
			"componentType":5126,
			"count":741,
			"type":"VEC2"
		},
		{
			"bufferView":23,
			"componentType":5123,
			"count":4206,
			"type":"SCALAR"
		},
		{
			"bufferView":24,
			"componentType":5126,
			"count":668,
			"max":[
				4.253091335296631,
				15.363812446594238,
				2.008638381958008
			],
			"min":[
				-2.8563456535339355,
				12.22807502746582,
				-0.13465070724487305
			],
			"type":"VEC3"
		},
		{
			"bufferView":25,
			"componentType":5126,
			"count":668,
			"type":"VEC3"
		},
		{
			"bufferView":26,
			"componentType":5126,
			"count":668,
			"type":"VEC2"
		},
		{
			"bufferView":27,
			"componentType":5123,
			"count":2295,
			"type":"SCALAR"
		},
		{
			"bufferView":28,
			"componentType":5126,
			"count":2270,
			"max":[
				1.279787540435791,
				12.989246368408203,
				0.691705048084259
			],
			"min":[
				-1.1766467094421387,
				10.415388107299805,
				-0.6080146431922913
			],
			"type":"VEC3"
		},
		{
			"bufferView":29,
			"componentType":5126,
			"count":2270,
			"type":"VEC3"
		},
		{
			"bufferView":30,
			"componentType":5126,
			"count":2270,
			"type":"VEC2"
		},
		{
			"bufferView":31,
			"componentType":5123,
			"count":2940,
			"type":"SCALAR"
		}
	],
	"bufferViews":[
		{
			"buffer":0,
			"byteLength":14160,
			"byteOffset":0,
			"target":34962
		},
		{
			"buffer":0,
			"byteLength":14160,
			"byteOffset":14160,
			"target":34962
		},
		{
			"buffer":0,
			"byteLength":9440,
			"byteOffset":28320,
			"target":34962
		},
		{
			"buffer":0,
			"byteLength":12732,
			"byteOffset":37760,
			"target":34963
		},
		{
			"buffer":0,
			"byteLength":13992,
			"byteOffset":50492,
			"target":34962
		},
		{
			"buffer":0,
			"byteLength":13992,
			"byteOffset":64484,
			"target":34962
		},
		{
			"buffer":0,
			"byteLength":9328,
			"byteOffset":78476,
			"target":34962
		},
		{
			"buffer":0,
			"byteLength":12588,
			"byteOffset":87804,
			"target":34963
		},
		{
			"buffer":0,
			"byteLength":17088,
			"byteOffset":100392,
			"target":34962
		},
		{
			"buffer":0,
			"byteLength":17088,
			"byteOffset":117480,
			"target":34962
		},
		{
			"buffer":0,
			"byteLength":11392,
			"byteOffset":134568,
			"target":34962
		},
		{
			"buffer":0,
			"byteLength":13620,
			"byteOffset":145960,
			"target":34963
		},
		{
			"buffer":0,
			"byteLength":720,
			"byteOffset":159580,
			"target":34962
		},
		{
			"buffer":0,
			"byteLength":720,
			"byteOffset":160300,
			"target":34962
		},
		{
			"buffer":0,
			"byteLength":480,
			"byteOffset":161020,
			"target":34962
		},
		{
			"buffer":0,
			"byteLength":462,
			"byteOffset":161500,
			"target":34963
		},
		{
			"buffer":0,
			"byteLength":720,
			"byteOffset":161964,
			"target":34962
		},
		{
			"buffer":0,
			"byteLength":720,
			"byteOffset":162684,
			"target":34962
		},
		{
			"buffer":0,
			"byteLength":480,
			"byteOffset":163404,
			"target":34962
		},
		{
			"buffer":0,
			"byteLength":462,
			"byteOffset":163884,
			"target":34963
		},
		{
			"buffer":0,
			"byteLength":8892,
			"byteOffset":164348,
			"target":34962
		},
		{
			"buffer":0,
			"byteLength":8892,
			"byteOffset":173240,
			"target":34962
		},
		{
			"buffer":0,
			"byteLength":5928,
			"byteOffset":182132,
			"target":34962
		},
		{
			"buffer":0,
			"byteLength":8412,
			"byteOffset":188060,
			"target":34963
		},
		{
			"buffer":0,
			"byteLength":8016,
			"byteOffset":196472,
			"target":34962
		},
		{
			"buffer":0,
			"byteLength":8016,
			"byteOffset":204488,
			"target":34962
		},
		{
			"buffer":0,
			"byteLength":5344,
			"byteOffset":212504,
			"target":34962
		},
		{
			"buffer":0,
			"byteLength":4590,
			"byteOffset":217848,
			"target":34963
		},
		{
			"buffer":0,
			"byteLength":27240,
			"byteOffset":222440,
			"target":34962
		},
		{
			"buffer":0,
			"byteLength":27240,
			"byteOffset":249680,
			"target":34962
		},
		{
			"buffer":0,
			"byteLength":18160,
			"byteOffset":276920,
			"target":34962
		},
		{
			"buffer":0,
			"byteLength":5880,
			"byteOffset":295080,
			"target":34963
		}
	],
	"samplers":[
		{
			"magFilter":9729,
			"minFilter":9987
		}
	],
	"buffers":[
		{
			"byteLength":300960,
			"uri":"newfronzen.bin"
		}
	]
}
