<?xml version="1.0" standalone="no"?>
<!DOCTYPE svg PUBLIC "-//W3C//DTD SVG 20010904//EN"
 "http://www.w3.org/TR/2001/REC-SVG-20010904/DTD/svg10.dtd">
<svg version="1.0" xmlns="http://www.w3.org/2000/svg"
 width="16.000000pt" height="16.000000pt" viewBox="0 0 16.000000 16.000000"
 preserveAspectRatio="xMidYMid meet">

<g transform="translate(0.000000,16.000000) scale(0.100000,-0.100000)"
fill="#000000" stroke="none">
<path d="M0 80 l0 -80 40 0 c22 0 40 5 40 10 0 6 -13 10 -30 10 -23 0 -30 4
-30 20 0 11 7 20 15 20 8 0 15 5 15 10 0 6 -7 10 -15 10 -10 0 -15 10 -15 30
0 27 3 30 30 30 17 0 30 5 30 10 0 6 -18 10 -40 10 l-40 0 0 -80z"/>
<path d="M90 80 l0 -80 35 0 c19 0 35 5 35 10 0 6 -11 10 -25 10 -24 0 -25 2
-25 70 0 40 -4 70 -10 70 -6 0 -10 -33 -10 -80z"/>
</g>
</svg>
